<svg xmlns="http://www.w3.org/2000/svg" width="500" height="135" viewBox="0 0 500 135"><rect width="100" height="100" x="16" y="16" fill="#393186" rx="9" ry="9"/><line x1="29" x2="29" y1="0" y2="14" stroke="gray" stroke-width="1"/><line x1="32" x2="32" y1="0" y2="14" stroke="gray" stroke-width="1"/><line x1="35" x2="35" y1="0" y2="14" stroke="gray" stroke-width="1"/><line x1="38" x2="38" y1="0" y2="14" stroke="gray" stroke-width="1"/><line x1="41" x2="41" y1="0" y2="14" stroke="gray" stroke-width="1"/><line x1="44" x2="44" y1="0" y2="14" stroke="gray" stroke-width="1"/><line x1="47" x2="47" y1="0" y2="14" stroke="gray" stroke-width="1"/><line x1="50" x2="50" y1="0" y2="14" stroke="gray" stroke-width="1"/><line x1="53" x2="53" y1="0" y2="14" stroke="gray" stroke-width="1"/><line x1="56" x2="56" y1="0" y2="14" stroke="gray" stroke-width="1"/><line x1="59" x2="59" y1="0" y2="14" stroke="gray" stroke-width="1"/><line x1="62" x2="62" y1="0" y2="14" stroke="gray" stroke-width="1"/><line x1="65" x2="65" y1="0" y2="14" stroke="gray" stroke-width="1"/><line x1="68" x2="68" y1="0" y2="14" stroke="gray" stroke-width="1"/><line x1="71" x2="71" y1="0" y2="14" stroke="gray" stroke-width="1"/><line x1="74" x2="74" y1="0" y2="14" stroke="gray" stroke-width="1"/><line x1="77" x2="77" y1="0" y2="14" stroke="gray" stroke-width="1"/><line x1="80" x2="80" y1="0" y2="14" stroke="gray" stroke-width="1"/><line x1="83" x2="83" y1="0" y2="14" stroke="gray" stroke-width="1"/><line x1="86" x2="86" y1="0" y2="14" stroke="gray" stroke-width="1"/><line x1="89" x2="89" y1="0" y2="14" stroke="gray" stroke-width="1"/><line x1="92" x2="92" y1="0" y2="14" stroke="gray" stroke-width="1"/><line x1="95" x2="95" y1="0" y2="14" stroke="gray" stroke-width="1"/><line x1="98" x2="98" y1="0" y2="14" stroke="gray" stroke-width="1"/><line x1="101" x2="101" y1="0" y2="14" stroke="gray" stroke-width="1"/><line x1="104" x2="104" y1="0" y2="14" stroke="gray" stroke-width="1"/><line x1="118" x2="133" y1="29" y2="29" stroke="gray" stroke-width="1"/><line x1="118" x2="133" y1="32" y2="32" stroke="gray" stroke-width="1"/><line x1="118" x2="133" y1="35" y2="35" stroke="gray" stroke-width="1"/><line x1="118" x2="133" y1="38" y2="38" stroke="gray" stroke-width="1"/><line x1="118" x2="133" y1="41" y2="41" stroke="gray" stroke-width="1"/><line x1="118" x2="133" y1="44" y2="44" stroke="gray" stroke-width="1"/><line x1="118" x2="133" y1="47" y2="47" stroke="gray" stroke-width="1"/><line x1="118" x2="133" y1="50" y2="50" stroke="gray" stroke-width="1"/><line x1="118" x2="133" y1="53" y2="53" stroke="gray" stroke-width="1"/><line x1="118" x2="133" y1="56" y2="56" stroke="gray" stroke-width="1"/><line x1="118" x2="133" y1="59" y2="59" stroke="gray" stroke-width="1"/><line x1="118" x2="133" y1="62" y2="62" stroke="gray" stroke-width="1"/><line x1="118" x2="133" y1="65" y2="65" stroke="gray" stroke-width="1"/><line x1="118" x2="133" y1="68" y2="68" stroke="gray" stroke-width="1"/><line x1="118" x2="133" y1="71" y2="71" stroke="gray" stroke-width="1"/><line x1="118" x2="133" y1="74" y2="74" stroke="gray" stroke-width="1"/><line x1="118" x2="133" y1="77" y2="77" stroke="gray" stroke-width="1"/><line x1="118" x2="133" y1="80" y2="80" stroke="gray" stroke-width="1"/><line x1="118" x2="133" y1="83" y2="83" stroke="gray" stroke-width="1"/><line x1="118" x2="133" y1="86" y2="86" stroke="gray" stroke-width="1"/><line x1="118" x2="133" y1="89" y2="89" stroke="gray" stroke-width="1"/><line x1="118" x2="133" y1="92" y2="92" stroke="gray" stroke-width="1"/><line x1="118" x2="133" y1="95" y2="95" stroke="gray" stroke-width="1"/><line x1="118" x2="133" y1="98" y2="98" stroke="gray" stroke-width="1"/><line x1="118" x2="133" y1="101" y2="101" stroke="gray" stroke-width="1"/><line x1="118" x2="133" y1="104" y2="104" stroke="gray" stroke-width="1"/><line x1="29" x2="29" y1="118" y2="133" stroke="gray" stroke-width="1"/><line x1="32" x2="32" y1="118" y2="133" stroke="gray" stroke-width="1"/><line x1="35" x2="35" y1="118" y2="133" stroke="gray" stroke-width="1"/><line x1="38" x2="38" y1="118" y2="133" stroke="gray" stroke-width="1"/><line x1="41" x2="41" y1="118" y2="133" stroke="gray" stroke-width="1"/><line x1="44" x2="44" y1="118" y2="133" stroke="gray" stroke-width="1"/><line x1="47" x2="47" y1="118" y2="133" stroke="gray" stroke-width="1"/><line x1="50" x2="50" y1="118" y2="133" stroke="gray" stroke-width="1"/><line x1="53" x2="53" y1="118" y2="133" stroke="gray" stroke-width="1"/><line x1="56" x2="56" y1="118" y2="133" stroke="gray" stroke-width="1"/><line x1="59" x2="59" y1="118" y2="133" stroke="gray" stroke-width="1"/><line x1="62" x2="62" y1="118" y2="133" stroke="gray" stroke-width="1"/><line x1="65" x2="65" y1="118" y2="133" stroke="gray" stroke-width="1"/><line x1="68" x2="68" y1="118" y2="133" stroke="gray" stroke-width="1"/><line x1="71" x2="71" y1="118" y2="133" stroke="gray" stroke-width="1"/><line x1="74" x2="74" y1="118" y2="133" stroke="gray" stroke-width="1"/><line x1="77" x2="77" y1="118" y2="133" stroke="gray" stroke-width="1"/><line x1="80" x2="80" y1="118" y2="133" stroke="gray" stroke-width="1"/><line x1="83" x2="83" y1="118" y2="133" stroke="gray" stroke-width="1"/><line x1="86" x2="86" y1="118" y2="133" stroke="gray" stroke-width="1"/><line x1="89" x2="89" y1="118" y2="133" stroke="gray" stroke-width="1"/><line x1="92" x2="92" y1="118" y2="133" stroke="gray" stroke-width="1"/><line x1="95" x2="95" y1="118" y2="133" stroke="gray" stroke-width="1"/><line x1="98" x2="98" y1="118" y2="133" stroke="gray" stroke-width="1"/><line x1="101" x2="101" y1="118" y2="133" stroke="gray" stroke-width="1"/><line x1="104" x2="104" y1="118" y2="133" stroke="gray" stroke-width="1"/><line x1="0" x2="14" y1="29" y2="29" stroke="gray" stroke-width="1"/><line x1="0" x2="14" y1="32" y2="32" stroke="gray" stroke-width="1"/><line x1="0" x2="14" y1="35" y2="35" stroke="gray" stroke-width="1"/><line x1="0" x2="14" y1="38" y2="38" stroke="gray" stroke-width="1"/><line x1="0" x2="14" y1="41" y2="41" stroke="gray" stroke-width="1"/><line x1="0" x2="14" y1="44" y2="44" stroke="gray" stroke-width="1"/><line x1="0" x2="14" y1="47" y2="47" stroke="gray" stroke-width="1"/><line x1="0" x2="14" y1="50" y2="50" stroke="gray" stroke-width="1"/><line x1="0" x2="14" y1="53" y2="53" stroke="gray" stroke-width="1"/><line x1="0" x2="14" y1="56" y2="56" stroke="gray" stroke-width="1"/><line x1="0" x2="14" y1="59" y2="59" stroke="gray" stroke-width="1"/><line x1="0" x2="14" y1="62" y2="62" stroke="gray" stroke-width="1"/><line x1="0" x2="14" y1="65" y2="65" stroke="gray" stroke-width="1"/><line x1="0" x2="14" y1="68" y2="68" stroke="gray" stroke-width="1"/><line x1="0" x2="14" y1="71" y2="71" stroke="gray" stroke-width="1"/><line x1="0" x2="14" y1="74" y2="74" stroke="gray" stroke-width="1"/><line x1="0" x2="14" y1="77" y2="77" stroke="gray" stroke-width="1"/><line x1="0" x2="14" y1="80" y2="80" stroke="gray" stroke-width="1"/><line x1="0" x2="14" y1="83" y2="83" stroke="gray" stroke-width="1"/><line x1="0" x2="14" y1="86" y2="86" stroke="gray" stroke-width="1"/><line x1="0" x2="14" y1="89" y2="89" stroke="gray" stroke-width="1"/><line x1="0" x2="14" y1="92" y2="92" stroke="gray" stroke-width="1"/><line x1="0" x2="14" y1="95" y2="95" stroke="gray" stroke-width="1"/><line x1="0" x2="14" y1="98" y2="98" stroke="gray" stroke-width="1"/><line x1="0" x2="14" y1="101" y2="101" stroke="gray" stroke-width="1"/><line x1="0" x2="14" y1="104" y2="104" stroke="gray" stroke-width="1"/><circle cx="26" cy="26" r="5" fill="#393186" stroke="#fff" stroke-width="2"/><text x="28" y="86" fill="#fff" stroke="#fff" stroke-width="3" font-family="Arial" font-size="50">I</text><text x="44" y="61" fill="#fff" stroke="#fff" stroke-width="1" font-family="Arial" font-size="25">2</text><text x="61" y="86" fill="#fff" stroke="#fff" stroke-width="3" font-family="Arial" font-size="50">M</text><text x="140" y="86" stroke-width="1" font-family="Calibri Black" font-size="55" font-weight="bold">IngenuityMicro</text></svg>